<?xml version="1.0" encoding="utf-8"?>
<!-- Generator: Adobe Illustrator 27.2.0, SVG Export Plug-In . SVG Version: 6.00 Build 0)  -->
<svg version="1.1" id="圖層_1" xmlns="http://www.w3.org/2000/svg" xmlns:xlink="http://www.w3.org/1999/xlink" x="0px" y="0px"
	 viewBox="0 0 700 700" style="enable-background:new 0 0 700 700;" xml:space="preserve">
<style type="text/css">
	.st0{fill:#FFFFFF;}
</style>
<path class="st0" d="M350,0C227.8,0,128.4,99.4,128.4,221.7v256.6C128.4,600.6,227.7,700,350,700c122.2,0,221.6-99.4,221.6-221.7
	V221.7C571.6,99.5,472.3,0,350,0L350,0z M548.7,478.3c0,109.7-89.1,198.9-198.7,198.9S151.3,588,151.3,478.3l0-135.6h397.5
	L548.7,478.3z M548.7,319.8H360.4V23.1c105.1,5.6,188.3,92.5,188.3,198.6V319.8z"/>
</svg>
